<svg xmlns="http://www.w3.org/2000/svg" width="31.681" height="31.681" viewBox="0 0 31.681 31.681">
  <path id="Path_659" data-name="Path 659" d="M1218.466,4620.122l-8.861-8.862-5.763,5.763-5.363-5.33,5.779-5.779-8.86-8.861a2.111,2.111,0,0,0-3.033.047,18.433,18.433,0,0,0,26.053,26.054,2.108,2.108,0,0,0,.048-3.032Zm-23.506.436a15.361,15.361,0,0,1-1.013-20.7l6.054,6.054-3.65,3.65a2.988,2.988,0,0,0,0,4.225l5.378,5.379a2.988,2.988,0,0,0,4.225,0l3.651-3.65,6.054,6.053A15.362,15.362,0,0,1,1194.96,4620.558Z" transform="translate(-1187.405 -4596.433)" fill="#040dc0"/>
</svg>
