<svg xmlns="http://www.w3.org/2000/svg" width="29.69" height="29.691" viewBox="0 0 29.69 29.691">
  <g id="Group_187" data-name="Group 187" transform="translate(-1188.194 -4712.544)">
    <g id="Group_186" data-name="Group 186">
      <path id="Path_660" data-name="Path 660" d="M1203.039,4712.544a14.845,14.845,0,1,0,14.845,14.845A14.862,14.862,0,0,0,1203.039,4712.544Zm0,26.446a11.6,11.6,0,1,1,11.6-11.6A11.614,11.614,0,0,1,1203.039,4738.99Z" fill="#040dc0"/>
      <path id="Path_661" data-name="Path 661" d="M1204.324,4727.407v-6.222a1.258,1.258,0,0,0-2.515,0v6.624c0,.02.005.038.005.058a1.255,1.255,0,0,0,.363.951l4.684,4.683a1.257,1.257,0,0,0,1.778-1.778Z" fill="#040dc0"/>
    </g>
  </g>
</svg>
