<svg xmlns="http://www.w3.org/2000/svg" viewBox="0 0 199.06 86.03"><defs><style>.cls-1{fill:#fff;}</style></defs><g id="Layer_2" data-name="Layer 2"><g id="contact"><path class="cls-1" d="M1.69,85.62A4.39,4.39,0,0,1,0,84.55L.36,84a4.32,4.32,0,0,0,1.55,1A5.65,5.65,0,0,0,4,85.33a4,4,0,0,0,2.36-.59,1.84,1.84,0,0,0,.79-1.55A1.65,1.65,0,0,0,6.69,82a2.87,2.87,0,0,0-1-.67A16.91,16.91,0,0,0,4,80.87,16,16,0,0,1,2,80.29,3,3,0,0,1,.8,79.43a2.36,2.36,0,0,1-.5-1.57A2.67,2.67,0,0,1,.72,76.4,2.88,2.88,0,0,1,2,75.35,5.28,5.28,0,0,1,4.16,75a6.28,6.28,0,0,1,1.78.26,5.49,5.49,0,0,1,1.52.72l-.3.64a5.31,5.31,0,0,0-1.44-.69,5.72,5.72,0,0,0-1.56-.23,3.66,3.66,0,0,0-2.29.61,1.9,1.9,0,0,0-.78,1.57A1.61,1.61,0,0,0,1.51,79a2.6,2.6,0,0,0,1.05.67,13.24,13.24,0,0,0,1.7.5,16,16,0,0,1,1.92.58,3.17,3.17,0,0,1,1.22.85,2.22,2.22,0,0,1,.51,1.54,2.65,2.65,0,0,1-.43,1.45,3,3,0,0,1-1.32,1A5.41,5.41,0,0,1,4,86a6.32,6.32,0,0,1-2.29-.41"/><rect class="cls-1" x="10.61" y="75.04" width="0.8" height="10.92"/><polygon class="cls-1" points="25.53 85.95 25.52 76.61 20.95 84.5 20.56 84.5 15.99 76.64 15.99 85.95 15.21 85.95 15.21 75.04 15.88 75.04 20.76 83.47 25.64 75.04 26.3 75.04 26.31 85.95 25.53 85.95"/><path class="cls-1" d="M31.85,85.31a5.44,5.44,0,0,1-2.78-4.81,5.47,5.47,0,0,1,.75-2.83,5.39,5.39,0,0,1,2-2,6.2,6.2,0,0,1,5.8,0,5.11,5.11,0,0,1,2,2,5.8,5.8,0,0,1,0,5.67,5.21,5.21,0,0,1-2,2,6,6,0,0,1-2.9.71,5.86,5.86,0,0,1-2.9-.72m5.38-.63A4.61,4.61,0,0,0,39,83,5,5,0,0,0,39,78a4.59,4.59,0,0,0-1.75-1.72,4.92,4.92,0,0,0-2.48-.63,5,5,0,0,0-2.49.63A4.59,4.59,0,0,0,30.51,78a5,5,0,0,0,0,4.91,4.61,4.61,0,0,0,1.75,1.73,5.11,5.11,0,0,0,2.49.62,5,5,0,0,0,2.48-.62"/><polygon class="cls-1" points="52.08 75.04 52.08 85.95 51.43 85.95 43.99 76.47 43.99 85.95 43.19 85.95 43.19 75.04 43.86 75.04 51.29 84.52 51.29 75.04 52.08 75.04"/><polygon class="cls-1" points="59.26 82.2 59.26 85.95 58.46 85.95 58.46 82.2 54.06 75.04 54.94 75.04 58.88 81.46 62.83 75.04 63.66 75.04 59.26 82.2"/><path class="cls-1" d="M71.75,82.88H65.42L64,86h-.86l5-10.91H69L74,86h-.86Zm-.3-.67-2.86-6.3-2.86,6.3Z"/><polygon class="cls-1" points="84.88 75.04 84.88 85.95 84.23 85.95 76.79 76.47 76.79 85.95 75.99 85.95 75.99 75.04 76.66 75.04 84.09 84.52 84.09 75.04 84.88 75.04"/><polygon class="cls-1" points="93.49 75.75 93.49 80.42 99.31 80.42 99.31 81.14 93.49 81.14 93.49 85.95 92.7 85.95 92.7 75.04 100 75.04 100 75.75 93.49 75.75"/><path class="cls-1" d="M104.13,85.31a5.41,5.41,0,0,1-2.77-4.81,5.46,5.46,0,0,1,.74-2.83,5.39,5.39,0,0,1,2-2,6.2,6.2,0,0,1,5.8,0,5.11,5.11,0,0,1,2,2,5.8,5.8,0,0,1,0,5.67,5.21,5.21,0,0,1-2,2A6,6,0,0,1,107,86a5.88,5.88,0,0,1-2.9-.72m5.38-.63A4.61,4.61,0,0,0,111.26,83a5,5,0,0,0,0-4.91,4.59,4.59,0,0,0-1.75-1.72,5.2,5.2,0,0,0-5,0A4.55,4.55,0,0,0,102.79,78a5,5,0,0,0,0,4.91,4.57,4.57,0,0,0,1.76,1.73,5.27,5.27,0,0,0,5,0"/><path class="cls-1" d="M116.52,84.83a4.91,4.91,0,0,1-1.14-3.51V75h.79v6.25a4.32,4.32,0,0,0,.92,3,3.46,3.46,0,0,0,2.67,1,3.39,3.39,0,0,0,2.65-1,4.27,4.27,0,0,0,.92-3V75h.8v6.28A4.87,4.87,0,0,1,123,84.83a4.93,4.93,0,0,1-6.45,0"/><polygon class="cls-1" points="136.73 75.04 136.73 85.95 136.08 85.95 128.64 76.47 128.64 85.95 127.84 85.95 127.84 75.04 128.51 75.04 135.94 84.52 135.94 75.04 136.73 75.04"/><path class="cls-1" d="M140.54,75h4.32a6.32,6.32,0,0,1,3,.7,5.11,5.11,0,0,1,2.05,1.94,5.79,5.79,0,0,1,0,5.63,5,5,0,0,1-2.05,1.94,6.32,6.32,0,0,1-3,.7h-4.32Zm4.26,10.2a5.67,5.67,0,0,0,2.66-.6A4.25,4.25,0,0,0,149.24,83a5.14,5.14,0,0,0,0-4.93,4.31,4.31,0,0,0-1.78-1.68,5.67,5.67,0,0,0-2.66-.6h-3.47v9.49Z"/><path class="cls-1" d="M160,82.88h-6.33L152.3,86h-.86l5-10.91h.8l5,10.91h-.86Zm-.3-.67-2.87-6.3L154,82.21Z"/><polygon class="cls-1" points="165.81 75.75 161.88 75.75 161.88 75.04 170.53 75.04 170.53 75.75 166.6 75.75 166.6 85.95 165.81 85.95 165.81 75.75"/><rect class="cls-1" x="172.5" y="75.04" width="0.8" height="10.92"/><path class="cls-1" d="M178.83,85.31a5.44,5.44,0,0,1-2.78-4.81,5.47,5.47,0,0,1,.75-2.83,5.39,5.39,0,0,1,2-2,6.2,6.2,0,0,1,5.8,0,5.11,5.11,0,0,1,2,2,5.8,5.8,0,0,1,0,5.67,5.21,5.21,0,0,1-2,2,6,6,0,0,1-2.9.71,5.86,5.86,0,0,1-2.9-.72m5.38-.63A4.61,4.61,0,0,0,186,83,5,5,0,0,0,186,78a4.59,4.59,0,0,0-1.75-1.72,4.92,4.92,0,0,0-2.48-.63,5,5,0,0,0-2.49.63A4.59,4.59,0,0,0,177.49,78a5,5,0,0,0,0,4.91,4.61,4.61,0,0,0,1.75,1.73,5.11,5.11,0,0,0,2.49.62,5,5,0,0,0,2.48-.62"/><polygon class="cls-1" points="199.06 75.04 199.06 85.95 198.41 85.95 190.97 76.47 190.97 85.95 190.17 85.95 190.17 75.04 190.84 75.04 198.27 84.52 198.27 75.04 199.06 75.04"/><path class="cls-1" d="M129.29,12.08a1.2,1.2,0,0,0-1.55-.57c-14.34,6.21-28.07,4-30.57,11.7-2.49,7.23,4.07,2.59,11.31,1.37,1.4-.23,3.15.22,2.35,2.39-4.24,11.51-2.72,21.51-14.17,22.81a13.52,13.52,0,0,0-1.44.25c-5.86,1.33-8.22,2.53-9.13,6.39-1.24,5.83,4.45,2.27,13.48-.11l.83-.19c21.34-4,19.11-9.82,21.91-13.86,3.4-7.18,6.77-12.67,10.1-14.13a2,2,0,0,0,1.19-2.28,57.1,57.1,0,0,0-4.31-13.77"/><path class="cls-1" d="M69.39,46.38a1.2,1.2,0,0,0,1.53.61c14.51-5.83,28.17-3.23,30.88-10.88,2.68-7.16-4-2.7-11.27-1.68-1.4.2-3.14-.3-2.29-2.44C92.79,20.6,91.54,10.55,103,9.56a14.06,14.06,0,0,0,1.45-.21c5.89-1.17,8.28-2.31,9.29-6.14,1.4-5.8-4.38-2.39-13.47-.25-.28.06-.56.12-.84.16C78,6.6,80.09,12.43,77.18,16.39c-3.59,7.09-7.11,12.49-10.48,13.86a2,2,0,0,0-1.25,2.24,57.45,57.45,0,0,0,3.94,13.89"/></g></g></svg>